<?xml version="1.0" encoding="UTF-8" standalone="no"?>
<svg
   width="50"
   height="53"
   viewBox="0 0 50 53"
   fill="none"
   version="1.1"
   id="svg27"
   sodipodi:docname="button-arrow.svg"
   inkscape:version="1.1 (c68e22c387, 2021-05-23)"
   xmlns:inkscape="http://www.inkscape.org/namespaces/inkscape"
   xmlns:sodipodi="http://sodipodi.sourceforge.net/DTD/sodipodi-0.dtd"
   xmlns="http://www.w3.org/2000/svg"
   xmlns:svg="http://www.w3.org/2000/svg">
  <defs
     id="defs31" />
  <sodipodi:namedview
     id="namedview29"
     pagecolor="#ffffff"
     bordercolor="#666666"
     borderopacity="1.0"
     inkscape:pageshadow="2"
     inkscape:pageopacity="0.0"
     inkscape:pagecheckerboard="0"
     showgrid="false"
     inkscape:snap-global="false"
     inkscape:zoom="32"
     inkscape:cx="27.296875"
     inkscape:cy="26.921875"
     inkscape:window-width="1920"
     inkscape:window-height="1027"
     inkscape:window-x="-8"
     inkscape:window-y="-8"
     inkscape:window-maximized="1"
     inkscape:current-layer="svg27" />
  <line
     x1="0.655762"
     y1="26.0664"
     x2="46.864"
     y2="26.0664"
     stroke="black"
     stroke-width="3"
     id="line21"
     style="fill:#15a14a;fill-opacity:1" />
  <line
     x1="23.3581"
     y1="1.93934"
     x2="48.174"
     y2="26.7552"
     stroke="black"
     stroke-width="3"
     id="line23" />
  <line
     x1="21.2367"
     y1="51.3216"
     x2="46.0525"
     y2="26.5058"
     stroke="black"
     stroke-width="3"
     id="line25" />
  <path
     style="fill:#ff2a2a;stroke-width:0.0647131"
     d="M 21.273994,51.268523 20.255855,50.24889 31.580309,38.924575 c 6.228449,-6.228373 11.324453,-11.346186 11.324453,-11.372918 0,-0.02673 -9.493407,-0.0486 -21.096459,-0.0486 H 0.71184371 V 26.047009 24.590965 H 22.342113 43.972382 L 33.165538,13.783975 22.358693,2.9769852 23.377856,1.9578225 24.397019,0.93865976 36.757117,13.298631 c 6.798055,6.797985 12.360099,12.389474 12.360099,12.425532 0,0.03606 -0.444993,0.509857 -0.988872,1.052888 -0.655678,0.654654 -1.01056,0.965641 -1.053237,0.922964 -0.04268,-0.04268 -4.217579,4.088893 -12.39049,12.261889 -6.77937,6.779439 -12.341056,12.326252 -12.359305,12.326252 -0.01825,0 -0.491341,-0.458835 -1.051318,-1.019633 z"
     id="path1615" />
  <path
     style="fill:#ff2a2a;stroke-width:0.0647131"
     d="m 21.308745,51.239068 -0.984376,-0.984375 11.290197,-11.30503 c 6.209607,-6.217766 11.290196,-11.336885 11.290196,-11.37582 0,-0.0511 -5.86785,-0.07079 -21.096459,-0.07079 H 0.71184371 V 26.047009 24.590965 H 22.37447 44.037095 L 33.230255,13.783979 22.423415,2.9769936 23.410219,1.9901894 24.397023,1.0033853 36.017001,12.619214 c 6.390988,6.388706 11.944072,11.96048 12.340185,12.38172 l 0.720207,0.765891 -0.903678,0.884292 c -0.497023,0.48636 -1.16348,1.102694 -1.481014,1.36963 -0.317534,0.266935 -5.926448,5.821743 -12.464252,12.344017 -6.537805,6.522274 -11.89781,11.858679 -11.911123,11.858679 -0.01331,0 -0.467175,-0.442968 -1.008581,-0.984375 z"
     id="path1654" />
  <path
     style="fill:#15a14a;stroke-width:0.0647131;fill-opacity:1"
     d="m 6.5573293,27.519234 c 3.2328132,-0.0093 8.5036927,-0.0093 11.7130647,2e-6 3.209372,0.0093 0.564343,0.01687 -5.877842,0.01687 -6.4421857,-1e-6 -9.0680359,-0.0076 -5.8352227,-0.01687 z"
     id="path1693" />
  <path
     style="fill:#15a14a;fill-opacity:1;stroke-width:0.0647131"
     d="m 21.310179,51.236765 -0.982298,-0.98707 11.290671,-11.311179 c 6.209869,-6.221149 11.273388,-11.339143 11.252265,-11.373321 -0.02442,-0.03951 -7.709192,-0.06214 -21.09869,-0.06214 H 0.71184371 V 26.047009 24.590965 H 22.37447 44.037095 L 33.230255,13.783979 22.423415,2.9769936 23.410219,1.9901894 24.397023,1.0033853 36.017001,12.619214 c 6.390988,6.388706 11.944072,11.96048 12.340185,12.38172 l 0.720207,0.765891 -0.907121,0.884292 c -0.498917,0.48636 -1.257625,1.196493 -1.686018,1.578072 -0.428393,0.381579 -6.028228,5.929107 -12.444077,12.327839 -6.41585,6.398732 -11.683748,11.641427 -11.706441,11.650433 -0.02269,0.009 -0.483294,-0.427808 -1.023557,-0.970696 z"
     id="path1806" />
  <path
     style="fill:#15a14a;fill-opacity:1;stroke-width:0.00390625"
     d=""
     id="path1845" />
  <path
     style="fill:#15a14a;fill-opacity:1;stroke-width:0.00390625"
     d="m 36.335939,12.935574 -2.271483,-2.271512 h 0.02734 0.02734 l 2.245312,2.245315 2.245313,2.245315 -0.0012,0.0262 -0.0012,0.0262 z"
     id="path1884" />
  <path
     style="fill:#15a14a;fill-opacity:1;stroke-width:0.00390625"
     d="m 36.367299,12.905273 -2.240124,-2.241211 h 0.037 0.037 l 2.204252,2.204255 2.204252,2.204254 -0.0011,0.03696 -0.0011,0.03696 z"
     id="path1923" />
  <path
     style="fill:#15a14a;fill-opacity:1;stroke-width:0.00390625"
     d="m 36.367838,12.902434 -2.235677,-2.238372 h 0.03255 0.03255 l 2.205536,2.206055 2.205536,2.206055 -0.0024,0.03232 -0.0024,0.03232 z"
     id="path1962" />
  <path
     style="fill:#15a14a;fill-opacity:1;stroke-width:0.00390625"
     d="m 36.368723,12.903703 -2.234793,-2.237687 0.0315,-0.0011 0.0315,-0.0011 2.205916,2.206225 2.205916,2.206226 -0.0026,0.03261 -0.0026,0.03261 z"
     id="path2001" />
  <path
     style="fill:#15a14a;fill-opacity:1;stroke-width:0.00390625"
     d="m 36.335939,12.931682 -2.267577,-2.26762 h 0.02344 0.02344 l 2.246553,2.247071 2.246553,2.24707 -0.0024,0.02055 -0.0024,0.02055 z"
     id="path2040" />
  <path
     style="fill:#15a14a;fill-opacity:1;stroke-width:0.00390625"
     d="m 36.335939,12.931682 -2.267577,-2.26762 h 0.02344 0.02344 l 2.246553,2.247071 2.246553,2.24707 -0.0024,0.02055 -0.0024,0.02055 z"
     id="path2079" />
  <path
     style="fill:#15a14a;fill-opacity:1;stroke-width:0.00390625"
     d="M 32.819335,13.368163 30.28125,10.830076 v -0.08301 -0.08301 h 1.887698 1.887699 l 0.946901,0.946908 c 0.587468,0.587472 0.948908,0.946136 0.952189,0.944877 0.0033,-0.0013 0.0045,-2.3e-5 0.0033,0.0033 -0.0013,0.0033 0.497684,0.505016 1.324175,1.331488 l 1.3262,1.32617 v 0.344728 0.344729 H 36.983397 35.35742 Z"
     id="path2118" />
  <path
     style="fill:#15a14a;fill-opacity:1;stroke-width:0.00390625"
     d="M 32.819335,13.368163 30.28125,10.830076 v -0.08301 -0.08301 h 1.888404 1.888404 l 2.275658,2.275735 2.275659,2.275734 v 0.34536 0.345359 H 36.983397 35.35742 Z"
     id="path2157" />
  <path
     style="fill:#15a14a;fill-opacity:1;stroke-width:0.00390625"
     d="M 32.819335,13.368163 30.28125,10.830076 v -0.08301 -0.08301 h 1.888231 1.888232 l 2.275946,2.274415 2.275947,2.274414 -1.17e-4,0.346679 -1.18e-4,0.34668 h -1.625977 -1.625978 l -2.538085,-2.538087 z"
     id="path2196" />
  <path
     style="fill:#15a14a;fill-opacity:1;stroke-width:0.00552427"
     d="M 32.908087,9.5045095 31.750762,8.3471746 h 0.02486 0.02486 l 1.157325,1.1573349 1.157325,1.1573345 h -0.02486 -0.02486 z"
     id="path2235" />
  <path
     style="fill:#15a14a;fill-opacity:1;stroke-width:0.00552427"
     d="M 32.08497,8.620626 30.043757,6.5794076 h 0.03591 0.03591 l 2.041213,2.0412184 2.041213,2.041218 h -0.03591 -0.03591 z"
     id="path2274" />
  <path
     style="fill:#15a14a;fill-opacity:1;stroke-width:0.00552427"
     d="m 30.642998,7.2426241 -1.107479,-1.1045505 0.02763,-3.038e-4 0.02763,-3.039e-4 1.104844,1.1048543 1.104844,1.1048544 h -0.02499 -0.02499 z"
     id="path2313" />
  <path
     style="fill:#15a14a;fill-opacity:1;stroke-width:0.015625"
     d="M 32.282002,12.825097 22.435886,2.9783184 23.07334,2.3407217 23.710795,1.703125 l 0.687571,1.28e-5 0.687571,1.29e-5 8.390625,8.3874833 c 4.614844,4.613115 9.328411,9.331078 10.474593,10.484361 l 2.083968,2.09688 h -1.953501 -1.953503 z"
     id="path2352" />
  <path
     style="fill:#15a14a;fill-opacity:1;stroke-width:0.00390625"
     d="m 33.48047,14.095728 -2.611327,-2.611353 h 0.0293 0.0293 l 2.583193,2.583196 2.583194,2.583196 -0.0012,0.02816 -0.0012,0.02816 z"
     id="path2391" />
  <path
     style="fill:#15a14a;fill-opacity:1;stroke-width:0.00390625"
     d=""
     id="path2430" />
  <path
     style="fill:#15a14a;fill-opacity:1;stroke-width:0.00390625"
     d="m 33.408203,14.105469 -2.621091,-2.621094 h 0.03711 0.03711 l 2.61621,2.616212 c 1.438915,1.438917 2.61621,2.618409 2.61621,2.621094 0,0.0035 -0.0091,0.0049 -0.03223,0.0049 h -0.03223 z"
     id="path2469" />
  <path
     style="fill:#15a14a;fill-opacity:1;stroke-width:0.00390625"
     d="M 27.91797,8.615253 25.478518,6.1757813 h 0.03711 0.03711 l 2.403476,2.4034789 2.403477,2.4034788 -0.0011,0.03599 -0.0011,0.03599 z"
     id="path2508" />
  <path
     style="fill:#15a14a;fill-opacity:1;stroke-width:0.00390625"
     d="M 27.958986,8.5742439 25.560549,6.1757813 h 0.0293 0.0293 l 2.370303,2.3703054 2.370303,2.3703053 -0.0012,0.02816 -0.0012,0.02816 z"
     id="path2547" />
  <path
     style="fill:#15a14a;fill-opacity:1;stroke-width:0.00552427"
     d="M 23.961534,4.5741022 22.365032,2.977593 22.771043,2.5715537 23.177054,2.1655145 h 0.02762 0.02762 l -0.406011,0.4060392 -0.406012,0.4060393 1.596503,1.5965092 1.596502,1.5965093 h -0.02762 -0.02762 z"
     id="path2586" />
  <path
     style="fill:#15a14a;fill-opacity:1;stroke-width:0.00552427"
     d="M 23.889718,4.5851506 22.304264,2.9996897 22.721325,2.5826021 c 0.329966,-0.3299885 0.419944,-0.4170876 0.43087,-0.4170876 0.01117,0 -0.06371,0.077523 -0.392201,0.4060392 l -0.406011,0.4060393 1.596502,1.5965092 1.596502,1.5965093 h -0.03591 -0.03591 z"
     id="path2625" />
  <path
     style="fill:#15a14a;fill-opacity:1;stroke-width:0.0110485"
     d="M 26.969509,3.56317 24.400755,0.99439836 23.814126,1.5809514 c -0.465675,0.4656137 -0.591583,0.5857783 -0.610651,0.5827959 -0.0195,-0.00305 0.0904,-0.1181365 0.583862,-0.6114066 l 0.607882,-0.60764963 2.593625,2.59362533 c 1.736916,1.7369161 2.586324,2.5936252 2.571522,2.5936252 -0.01468,0 -0.885251,-0.8631545 -2.590857,-2.5687716 z"
     id="path2664" />
  <path
     style="fill:#15a14a;fill-opacity:1;stroke-width:0.0110485"
     d=""
     id="path2703" />
  <path
     style="fill:#15a14a;fill-opacity:1;stroke-width:0.00390625"
     d="m 27.320314,3.8574406 -2.18164,-2.1816593 h 0.03711 0.03711 l 2.145664,2.1456665 2.145664,2.1456667 -0.0011,0.035992 -0.0011,0.035993 z"
     id="path2781" />
  <path
     style="fill:#15a14a;fill-opacity:1;stroke-width:0.0078125"
     d="m 30.614597,11.227879 c -0.240296,-0.240379 -0.256248,-0.258061 -0.253862,-0.281393 0.0025,-0.02412 0.01134,-0.0161 0.283756,0.256496 0.273072,0.273251 0.280418,0.281393 0.253861,0.281393 -0.02549,0 -0.04473,-0.01739 -0.283755,-0.256496 z"
     id="path2820" />
  <path
     style="fill:#15a14a;fill-opacity:1;stroke-width:0.0078125"
     d=""
     id="path2859" />
  <path
     style="fill:#15a14a;fill-opacity:1;stroke-width:0.0078125"
     d="m 30.572212,11.271432 c -0.21168,-0.211785 -0.212837,-0.213123 -0.212837,-0.246094 0,-0.01823 0.0027,-0.03315 0.0059,-0.03315 0.0032,0 0.116606,0.110743 0.251906,0.246094 l 0.246001,0.246094 h -0.03907 -0.03907 z"
     id="path2898" />
  <path
     style="fill:#15a14a;fill-opacity:1;stroke-width:0.0110485"
     d="m 23.779216,1.5274967 0.638018,-0.6380178 0.386938,0.3866634 c 0.316021,0.3157971 0.382536,0.3873516 0.362917,0.3904179 -0.01893,0.00296 -0.101481,-0.073679 -0.389738,-0.3618397 -0.201144,-0.2010769 -0.370677,-0.36559431 -0.376741,-0.36559431 -0.0061,0 -0.286929,0.27593741 -0.624145,0.61319421 -0.337215,0.3372567 -0.618102,0.6131941 -0.624193,0.6131941 -0.0061,0 0.276034,-0.287108 0.626944,-0.6380178 z"
     id="path2937" />
  <path
     style="fill:#15a14a;fill-opacity:1;stroke-width:0.00552427"
     d="m 29.774131,6.3097871 -0.269578,-0.2696206 0.0017,-0.034274 0.0017,-0.034274 0.303817,0.3038944 0.303816,0.3038944 h -0.03591 -0.03591 z"
     id="path2976" />
  <path
     style="fill:#15a14a;fill-opacity:1;stroke-width:0.0110485"
     d=""
     id="path3015" />
  <path
     style="fill:#15a14a;fill-opacity:1;stroke-width:0.00552427"
     d="M 40.793101,17.392903 C 38.523034,15.118765 38.592479,15.189621 38.6133,15.1688 c 0.0029,-0.0029 0.882047,0.874044 2.15625,2.15106 1.183203,1.185817 2.173481,2.17901 2.200616,2.207095 l 0.04934,0.05106 h -0.0226 -0.0226 z"
     id="path3210" />
  <path
     style="fill:#15a14a;fill-opacity:1;stroke-width:0.00552427"
     d="m 40.821606,17.362958 -2.209709,-2.214815 -0.0017,-0.0287 c -9.33e-4,-0.01579 3.72e-4,-0.03078 0.0029,-0.0333 0.0025,-0.0025 1.016305,1.00711 2.252835,2.243643 l 2.248237,2.248242 -0.04143,-1.23e-4 -0.04143,-1.23e-4 -2.209709,-2.214815 z"
     id="path3249" />
  <path
     style="fill:#15a14a;fill-opacity:1;stroke-width:0.00390625"
     d="M 37.657225,18.272459 36.09375,16.708981 v -0.02418 c 0,-0.0133 0.0014,-0.02506 0.0032,-0.02614 0.0017,-0.0011 0.718486,0.713372 1.592772,1.58766 l 1.58961,1.589614 h -0.0293 -0.0293 z"
     id="path3288" />
  <path
     style="fill:#15a14a;fill-opacity:1;stroke-width:0.00390625"
     d="m 37.583984,18.28125 -1.554683,-1.554687 h 0.0319 c 0.0178,0 0.03247,-0.0017 0.0332,-0.0039 7.17e-4,-0.0021 0.702669,0.69746 1.559895,1.554687 l 1.558591,1.558596 h -0.03711 -0.03711 z"
     id="path3327" />
  <path
     style="fill:#15a14a;fill-opacity:1;stroke-width:0.00552427"
     d="m 34.880252,24.577485 c 0,-0.01104 0.0037,-0.01105 4.495373,-0.01105 h 4.495374 L 41.506616,22.202048 39.142232,19.83766 h 0.03591 0.03591 l 2.375432,2.375437 2.375432,2.375436 h -4.54233 c -4.538647,0 -4.54233,-8e-6 -4.54233,-0.01105 z"
     id="path3366" />
  <path
     style="fill:#15a14a;fill-opacity:1;stroke-width:0.00552427"
     d="m 34.880252,25.207252 v -0.613194 h 4.581 4.581 l -3.093588,-3.093592 -3.093588,-3.093593 h 1.970281 1.970282 l 1.836032,1.840964 c 1.009819,1.01253 2.10385,2.109925 2.431181,2.438655 l 0.595147,0.597691 v 1.268132 1.268131 h -5.888874 -5.888873 z"
     id="path3405" />
  <path
     style="fill:#15a14a;fill-opacity:1;stroke-width:0.00552427"
     d="m 34.880252,25.207252 v -0.613194 h 4.581 4.581 l -3.093588,-3.093592 -3.093588,-3.093593 h 1.96942 1.96942 l 1.096626,1.097949 c 0.603145,0.603872 1.445865,1.448503 1.87271,1.876957 0.426845,0.428454 1.027782,1.031483 1.335414,1.340064 l 0.559333,0.561057 v 1.268773 1.268773 h -5.888874 -5.888873 z"
     id="path3444" />
  <path
     style="fill:#15a14a;fill-opacity:1;stroke-width:0.00552427"
     d="M 41.600528,22.213097 39.225096,19.83766 h 0.02762 0.02762 l 2.375432,2.375437 2.375432,2.375436 h -0.02762 -0.02762 z"
     id="path3483" />
  <path
     style="fill:#15a14a;fill-opacity:1;stroke-width:0.00390625"
     d="m 45.904421,22.520271 c -0.27708,-0.27863 -1.049638,-1.054158 -1.716797,-1.723396 l -1.213015,-1.216797 0.02344,-0.002 0.02344,-0.002 0.634789,0.636719 c 0.349134,0.350195 1.003845,1.007617 1.454913,1.460937 0.451068,0.45332 0.938833,0.943311 1.083922,1.088867 l 0.263798,0.264649 -0.02535,-2.37e-4 -0.02535,-2.37e-4 z"
     id="path3522" />
  <path
     style="fill:#15a14a;fill-opacity:1;stroke-width:0.00390625"
     d="m 46.40997,22.973645 c -0.08609,-0.08797 -1.461877,-1.470785 -2.454281,-2.466809 l -0.925334,-0.928711 h 0.04244 0.04244 l 1.724606,1.724609 1.724606,1.72461 h -0.05097 -0.05097 z"
     id="path3561" />
  <path
     style="fill:#15a14a;fill-opacity:1;stroke-width:0.00552427"
     d=""
     id="path3600" />
  <path
     style="fill:#15a14a;fill-opacity:1;stroke-width:0.00552427"
     d="m 47.075006,27.770232 -0.03859,-0.0391 0.01657,-0.01343 c 0.01046,-0.0085 0.02371,-0.01344 0.03591,-0.01347 0.04183,-9e-5 0.156639,-0.08567 0.355228,-0.264785 0.333512,-0.300807 1.101013,-1.067547 1.468545,-1.467087 0.11403,-0.123962 0.183925,-0.205255 0.198035,-0.23033 l 0.01148,-0.02041 -0.06471,-0.06798 c -0.203657,-0.213956 -0.97172,-0.9934 -2.008996,-2.038765 l -0.579671,-0.584192 h 0.04903 0.04903 l 1.331342,1.331351 1.331342,1.33135 -1.05797,1.057971 -1.05797,1.05797 z"
     id="path3639" />
  <path
     style="fill:#15a14a;fill-opacity:1;stroke-width:0.00552427"
     d="m 49.061057,25.74693 c -0.03796,-0.04447 -0.717361,-0.765621 -0.831116,-0.882183 -0.167049,-0.171171 -0.423628,-0.430562 -1.162545,-1.175289 l -0.65363,-0.658769 h 0.02175 c 0.02145,0 0.02726,0.0055 0.419388,0.399128 0.740843,0.743628 1.872008,1.889525 2.141629,2.169521 0.06283,0.06525 0.114239,0.122519 0.114239,0.127267 0,0.0047 -0.0068,0.01636 -0.01519,0.02581 l -0.01519,0.01717 z"
     id="path3678" />
  <path
     style="fill:#15a14a;fill-opacity:1;stroke-width:0.00552427"
     d="m 47.122255,27.650361 c 0.436893,-0.405121 0.804462,-0.756751 1.481803,-1.417546 0.248697,-0.242622 0.45332,-0.439987 0.454718,-0.438589 0.0058,0.0059 -0.187072,0.21632 -0.436684,0.476402 -0.177614,0.185064 -0.773202,0.780679 -0.920006,0.920049 -0.369431,0.350721 -0.560202,0.508021 -0.616118,0.508021 -0.01467,0 -0.012,-0.0036 0.03629,-0.04834 z"
     id="path3717" />
  <path
     style="fill:#15a14a;fill-opacity:1;stroke-width:0.00390625"
     d="m 44.501738,30.168671 c 0.173029,-0.171961 0.551183,-0.54428 0.974836,-0.959794 0.654286,-0.641716 0.981973,-0.958663 0.986485,-0.954152 0.0011,0.0011 -0.07675,0.07823 -0.172938,0.171462 -0.278134,0.269586 -0.781831,0.762 -1.024496,1.001547 -0.590464,0.582879 -0.902611,0.888672 -0.907135,0.888672 -0.003,0 0.06149,-0.06648 0.143248,-0.147735 z"
     id="path3756" />
  <path
     style="fill:#15a14a;fill-opacity:1;stroke-width:0.00390625"
     d="m 30.152344,27.537355 v -0.02905 l 1.284179,0.0018 c 2.070288,0.0029 5.298666,0.0092 6.205079,0.01198 l 0.838867,0.0026 v 0.02085 0.02085 h -4.164063 -4.164062 z"
     id="path3795" />
  <path
     style="fill:#15a14a;fill-opacity:1;stroke-width:0.0078125"
     d="m 31.492725,39.017578 c 2.880759,-2.882129 5.243017,-5.241436 5.249462,-5.242906 0.0064,-0.0015 -0.05508,0.0653 -0.136718,0.148388 -0.340913,0.346933 -3.896312,3.915031 -6.987491,7.012447 -2.959261,2.965232 -3.318161,3.322305 -3.339306,3.322305 -0.0212,0 0.527603,-0.551557 5.214053,-5.240234 z"
     id="path3834" />
  <path
     style="fill:#15a14a;fill-opacity:1;stroke-width:0.0078125"
     d="m 31.425781,39.015625 c 4.987348,-4.987352 5.243513,-5.242188 5.269527,-5.242188 0.02607,0 -0.217074,0.244419 -5.214839,5.242188 -4.987348,4.987352 -5.243513,5.242187 -5.269527,5.242187 -0.02607,0 0.217075,-0.244418 5.214839,-5.242187 z"
     id="path3873" />
  <path
     style="fill:#15a14a;fill-opacity:1;stroke-width:0.0078125"
     d="m 35.006714,39.647656 c 2.5367,-2.535219 4.614288,-4.607384 4.61686,-4.604811 0.007,0.007 -9.203709,9.215021 -9.217322,9.214634 -0.0064,-1.84e-4 2.063761,-2.074604 4.600462,-4.609823 z"
     id="path3912" />
  <path
     style="fill:#15a14a;fill-opacity:1;stroke-width:0.0078125"
     d="m 30.480494,44.110602 c 0.184497,-0.183002 4.856089,-4.837799 6.050756,-6.029002 1.706361,-1.701413 3.089116,-3.073212 3.093361,-3.06885 0.0024,0.0024 -2.076955,2.083402 -4.620705,4.624388 -4.071106,4.066683 -4.627804,4.620017 -4.648412,4.620324 -0.02145,3.21e-4 -0.01098,-0.01198 0.125,-0.14686 z"
     id="path3951" />
  <path
     style="fill:#15a14a;fill-opacity:1;stroke-width:0.0078125"
     d="m 21.043792,51.031445 -0.782073,-0.781054 3.015297,-3.015497 c 1.658414,-1.658523 3.016889,-3.013906 3.018833,-3.011962 0.0019,0.0019 -0.0026,0.01028 -0.01003,0.01852 -0.01248,0.01379 -0.01253,0.0152 -6.12e-4,0.01763 0.0086,0.0018 -0.981886,0.99921 -2.972067,2.992858 -1.641759,1.64462 -2.985017,2.993953 -2.985017,2.998518 0,0.0046 0.349163,0.357893 0.775917,0.785173 0.741112,0.742024 0.774703,0.776872 0.74887,0.776872 -0.02546,0 -0.07297,-0.04586 -0.80912,-0.781055 z"
     id="path3990" />
  <path
     style="fill:#15a14a;fill-opacity:1;stroke-width:0.0078125"
     d=""
     id="path4029" />
  <path
     style="fill:#15a14a;fill-opacity:1;stroke-width:0.0078125"
     d="m 20.960932,51.035151 -0.77732,-0.777349 3.019195,-3.019203 c 1.660557,-1.660561 3.020785,-3.017611 3.022729,-3.015667 0.0019,0.0019 -0.0028,0.01059 -0.01065,0.01921 -0.01187,0.01312 -0.01223,0.01567 -0.0022,0.01567 0.0066,0 0.01635,-0.0053 0.0217,-0.01172 0.0053,-0.0064 0.01369,-0.01172 0.01853,-0.01172 0.0048,0 -1.344137,1.352946 -2.997734,3.006546 l -3.006538,3.006547 0.781857,0.782516 0.781858,0.782516 h -0.03705 -0.03705 z"
     id="path4068" />
  <path
     style="fill:#15a14a;fill-opacity:1;stroke-width:0.0110485"
     d="m 22.082695,52.055132 c -0.19207,-0.182763 -0.236698,-0.230587 -0.22593,-0.242114 0.0108,-0.01157 0.04467,0.01525 0.173826,0.137635 0.171364,0.16238 0.287688,0.264506 0.301462,0.264665 0.01011,1.17e-4 0.62019,-0.60565 4.806846,-4.772872 1.931663,-1.922697 3.200703,-3.177844 3.21517,-3.179972 0.02584,-0.0038 0.08813,-0.06629 -3.588972,3.600271 -2.408966,2.40206 -4.105564,4.090823 -4.32075,4.300796 l -0.122303,0.11934 z"
     id="path4261" />
  <path
     style="fill:#15a14a;fill-opacity:1;stroke-width:0.0078125"
     d="M 22.01955,52.093768 21.738363,51.8125 h 0.03799 0.03799 l 0.180722,0.173963 c 0.258291,0.248631 0.317047,0.302599 0.32944,0.302599 0.01694,0 1.227505,-1.202398 4.305226,-4.276181 1.032579,-1.031259 1.552003,-1.5448 1.560643,-1.542969 0.0087,0.0018 -0.958671,0.974333 -2.93834,2.953935 l -2.951291,2.95119 z"
     id="path4300" />
  <path
     style="fill:#15a14a;fill-opacity:1;stroke-width:0.00390625"
     d="m 36.34375,34.150449 c 0,-0.0016 0.06005,-0.06375 0.133451,-0.138176 0.134273,-0.136152 0.210647,-0.217075 0.218208,-0.231204 0.0074,-0.01383 -0.0061,-0.0088 -0.03017,0.01129 -0.03132,0.02615 -0.132119,0.123087 -0.255112,0.245344 -0.05695,0.05661 -0.105287,0.102922 -0.10742,0.102922 -0.0021,0 0.584988,-0.588867 1.304712,-1.308594 l 1.308589,-1.308593 h 0.02536 0.02536 l -0.353752,0.354492 c -0.194564,0.19497 -0.784737,0.786691 -1.311494,1.314934 -0.526758,0.528242 -0.957742,0.959156 -0.957742,0.957585 z"
     id="path4339" />
  <path
     style="fill:#15a14a;fill-opacity:1;stroke-width:0.00390625"
     d="m 36.203125,34.30335 c 0,-0.0018 0.623485,-0.628009 1.385521,-1.391588 1.238577,-1.241082 1.429157,-1.42976 1.394974,-1.381051 -0.005,0.0071 -0.183997,0.187709 -1.600415,1.61477 -0.589487,0.593916 -0.737023,0.740552 -0.656998,0.652992 0.01111,-0.01216 0.01919,-0.02312 0.01796,-0.02436 -0.0027,-0.0027 -0.04388,0.0376 -0.327172,0.319605 -0.117627,0.117093 -0.213867,0.211428 -0.213867,0.209633 z"
     id="path4378" />
  <path
     style="fill:#15a14a;fill-opacity:1;stroke-width:0.00390625"
     d="M 39.336924,35.305654 C 39.495366,35.147202 39.625,35.015972 39.625,35.014033 c 0,-0.0019 -0.0035,-3.34e-4 -0.0078,0.0036 -0.0043,0.0039 -0.0087,0.0062 -0.0099,0.0051 -0.0027,-0.0027 1.297946,-1.295442 2.75988,-2.743245 0.80913,-0.80131 0.762955,-0.75599 0.770254,-0.75599 0.0064,0 -0.123853,0.130238 -1.19593,1.195434 -0.838442,0.83306 -1.545623,1.537378 -2.271595,2.262397 -0.337307,0.336865 -0.615037,0.612481 -0.617177,0.612481 -0.0021,0 0.125742,-0.129643 0.284184,-0.288096 z"
     id="path4417" />
  <path
     style="fill:#15a14a;fill-opacity:1;stroke-width:0.00390625"
     d=""
     id="path4456" />
  <path
     style="fill:#15a14a;fill-opacity:1;stroke-width:0.0110485"
     d="m 17.202582,27.556811 c 0,-0.01667 0.38325,-0.0238 1.418747,-0.02638 0.649299,-0.0016 0.885529,-0.0047 0.652855,-0.0085 -0.200531,-0.0033 2.164824,-0.0071 5.256345,-0.0085 l 5.620946,-0.0025 v 0.02762 0.02762 h -6.474446 c -3.560946,0 -6.474447,-0.0042 -6.474447,-0.0093 z"
     id="path4495" />
  <path
     style="fill:#15a14a;fill-opacity:1;stroke-width:0.00390625"
     d="m 25.948242,24.59082 c 1.145654,-5.41e-4 3.020362,-5.41e-4 4.166016,0 1.145654,5.41e-4 0.208301,9.84e-4 -2.083008,9.84e-4 -2.291309,0 -3.228662,-4.43e-4 -2.083008,-9.84e-4 z"
     id="path4534" />
  <path
     style="fill:#15a14a;fill-opacity:1;stroke-width:0.00390625"
     d="m 23.867188,24.578125 v -0.01172 h 4.164062 4.164063 v 0.01172 0.01172 H 28.03125 23.867188 Z"
     id="path4573" />
  <path
     style="fill:#15a14a;fill-opacity:1;stroke-width:0.00390625"
     d="m 0.80078125,27.535156 v -0.03125 H 4.9648438 c 2.7734375,0 4.1640624,0.0013 4.1640624,0.0039 0,0.0025 -0.045282,0.0039 -0.1279296,0.004 -0.070361,2.9e-5 -0.8178711,0.0017 -1.6611328,0.0037 -1.6047352,0.0038 -2.1821422,0.0072 -2.1523438,0.01264 0.00967,0.0018 0.9004395,0.0043 1.9794922,0.0057 l 1.961914,0.0025 v 0.01508 0.01508 H 4.9648438 0.80078125 Z"
     id="path4758" />
  <path
     style="fill:#15a14a;fill-opacity:1;stroke-width:0.00390625"
     d="m 0.65625,26.636719 v -0.929688 h 0.0273437 0.0273437 v 0.898438 0.898437 h 0.0449219 0.0449219 v 0.03125 0.03125 H 0.72851563 0.65625 Z"
     id="path4797" />
  <path
     style="fill:#15a14a;fill-opacity:1;stroke-width:0.00390625"
     d="m 0.71286994,26.046875 c 0,-0.800293 4.4874e-4,-1.127686 9.9719e-4,-0.727539 5.4845e-4,0.400146 5.4845e-4,1.054932 0,1.455078 -5.4845e-4,0.400147 -9.9719e-4,0.07275 -9.9719e-4,-0.727539 z"
     id="path5095" />
  <path
     style="fill:#15a14a;fill-opacity:1;stroke-width:0.00390625"
     d="m 40.338152,30.101303 1.422134,-1.422135 0.01611,0.0012 0.01611,0.0012 -0.500749,0.504449 c -0.275412,0.277447 -0.911139,0.916852 -1.412725,1.420898 l -0.911976,0.91645 h -0.02552 -0.02552 z"
     id="path5432" />
  <path
     style="fill:#15a14a;fill-opacity:1;stroke-width:0.00390625"
     d="m 36.752221,33.788086 c 1.654788,-1.665498 3.478211,-3.507417 4.376505,-4.420898 0.134157,-0.136426 0.293261,-0.298145 0.353563,-0.359375 0.0603,-0.06123 0.155753,-0.158169 0.212113,-0.215418 l 0.102473,-0.10409 -3.9e-5,2.074793 -3.9e-5,2.074793 -0.545874,0.541795 -0.545874,0.541796 -2.042893,1.95e-4 -2.042863,1.98e-4 z"
     id="path5471" />
  <path
     style="fill:#15a14a;fill-opacity:1;stroke-width:0.00390625"
     d="m 36.732463,33.807617 c 0.109212,-0.110288 0.376627,-0.379616 0.939578,-0.9463 0.14726,-0.148236 0.469738,-0.473426 0.716618,-0.722645 0.24688,-0.249219 0.539464,-0.544531 0.650187,-0.65625 0.110723,-0.111719 0.285797,-0.288379 0.389054,-0.392578 0.242917,-0.245134 0.782067,-0.790876 1.146141,-1.160156 0.157802,-0.160059 0.345071,-0.349903 0.416154,-0.421875 0.07108,-0.07197 0.233716,-0.237208 0.361408,-0.367188 0.127692,-0.12998 0.280116,-0.285021 0.33872,-0.344534 l 0.106552,-0.108207 v 2.07523 2.075229 l -0.545898,0.541619 -0.545899,0.541618 -2.042879,1.49e-4 -2.042879,1.46e-4 z"
     id="path5510" />
  <path
     style="fill:#15a14a;fill-opacity:1;stroke-width:0.00390625"
     d="m 36.716826,33.823259 c 0.0537,-0.05424 0.22156,-0.223429 0.373033,-0.375977 0.607925,-0.612238 0.824394,-0.83033 1.04104,-1.048844 0.124608,-0.125684 0.32503,-0.327833 0.445381,-0.449219 0.582915,-0.587931 1.392212,-1.405896 1.841628,-1.861354 0.07845,-0.07951 0.206887,-0.209584 0.285412,-0.289062 0.07852,-0.07948 0.253335,-0.257006 0.388467,-0.394506 0.135132,-0.1375 0.296819,-0.301856 0.359304,-0.365234 0.06249,-0.06338 0.165848,-0.168349 0.229697,-0.233267 l 0.116087,-0.118032 v 2.07544 2.075441 l -0.545898,0.541506 -0.545899,0.541506 -2.042939,1.1e-4 -2.04294,1.08e-4 z"
     id="path5549" />
  <path
     style="fill:#15a14a;fill-opacity:1;stroke-width:0.00390625"
     d=""
     id="path5588" />
  <path
     style="fill:#15a14a;fill-opacity:1;stroke-width:0.00390625"
     d="m 38.980679,31.516776 c 0.04646,-0.04996 1.692871,-1.699996 1.694565,-1.698303 0.0012,0.0012 -0.06206,0.06664 -0.140467,0.145522 -0.07841,0.07888 -0.290988,0.29372 -0.472398,0.477411 -0.949275,0.961214 -1.078282,1.089844 -1.093042,1.089844 -0.0012,0 0.0039,-0.0065 0.01134,-0.01447 z"
     id="path5627" />
  <path
     style="fill:#15a14a;fill-opacity:1;stroke-width:0.00390625"
     d="m 38.480469,27.545071 v -0.02134 l 0.293945,0.0019 c 0.16167,10e-4 0.665723,0.0036 1.120117,0.0058 1.339187,0.0063 2.209929,0.01383 2.514649,0.02179 0.07934,0.0021 0.09863,0.0036 0.09863,0.0079 0,0.0045 -0.317528,0.0053 -2.013672,0.0053 h -2.013672 z"
     id="path5666" />
  <path
     style="fill:#15a14a;fill-opacity:1;stroke-width:0.00390625"
     d="m 5.6523438,24.578125 v -0.01172 h 4.1640624 4.1640628 v 0.01172 0.01172 H 9.8164062 5.6523438 Z"
     id="path5705" />
  <path
     style="fill:#15a14a;fill-opacity:1;stroke-width:0.00390625"
     d="m 0.65625,25.136719 v -0.570313 h 2.4980469 2.4980469 v 0.01172 0.01172 H 3.1816406 0.7109375 v 0.558594 0.558593 H 0.68359375 0.65625 Z"
     id="path5744" />
  <path
     style="fill:#15a14a;fill-opacity:1;stroke-width:0.00552427"
     d="m 10.906293,27.567497 c 0.977589,-7.69e-4 2.57728,-7.69e-4 3.554869,0 0.977589,7.69e-4 0.177744,0.0014 -1.777434,0.0014 -1.955178,0 -2.7550235,-6.29e-4 -1.777435,-0.0014 z"
     id="path5783" />
  <path
     style="fill:#15a14a;fill-opacity:1;stroke-width:0.00552427"
     d="m 11.467429,27.567498 c 0.155947,-8.16e-4 0.409511,-8.15e-4 0.563475,0 0.153965,8.16e-4 0.02637,0.0015 -0.28354,0.0015 -0.309912,0 -0.435883,-6.68e-4 -0.279935,-0.0015 z"
     id="path5822" />
  <path
     style="fill:#15a14a;fill-opacity:1;stroke-width:0.00552427"
     d="m 9.1316212,27.552305 v -0.01381 h 3.5521068 3.552107 v 0.01381 0.01381 H 12.683728 9.1316212 Z"
     id="path5900" />
  <path
     style="fill:#15a14a;fill-opacity:1;stroke-width:0.00390625"
     d="m 13.980469,24.578125 v -0.01172 h 2.847656 2.847656 v 0.01172 0.01172 h -2.847656 -2.847656 z"
     id="path5939" />
  <path
     style="fill:#15a14a;fill-opacity:1;stroke-width:0.00390625"
     d="m 16.238281,27.550781 v -0.01563 l 0.629883,6.12e-4 c 0.413386,4.01e-4 0.593632,0.0017 0.524414,0.0037 -0.09964,0.003 -0.184463,0.0089 -0.188799,0.01323 -0.0011,0.0011 -6.38e-4,0.0033 9.73e-4,0.0049 0.0016,0.0016 0.328417,0.0039 0.726237,0.005 0.672291,0.002 0.638103,0.0022 -0.4847,0.0029 l -1.208008,8.14e-4 z"
     id="path5978" />
</svg>
